PathFileType	4	(X/Y/Z)	C:\Users\chris\Documents\GitHub\baseballds\vids\pitch2_Sports2D\pitch2_Sports2D_px_person00.trc
DataRate	CameraRate	NumFrames	NumMarkers	Units	OrigDataRate	OrigDataStartFrame	OrigNumFrames
30	30	8	22	m	30	121	243
Frame#	Time	Hip			RHip			RKnee			RAnkle			RBigToe			RSmallToe			RHeel			LHip			LKnee			LAnkle			LBigToe			LSmallToe			LHeel			Neck			Head			Nose			RShoulder			RElbow			RWrist			LShoulder			LElbow			LWrist		
		X1	Y1	Z1	X2	Y2	Z2	X3	Y3	Z3	X4	Y4	Z4	X5	Y5	Z5	X6	Y6	Z6	X7	Y7	Z7	X8	Y8	Z8	X9	Y9	Z9	X10	Y10	Z10	X11	Y11	Z11	X12	Y12	Z12	X13	Y13	Z13	X14	Y14	Z14	X15	Y15	Z15	X16	Y16	Z16	X17	Y17	Z17	X18	Y18	Z18	X19	Y19	Z19	X20	Y20	Z20	X21	Y21	Z21	X22	Y22	Z22
121	4.033333333333333	382.2633014036413	988.4092155497539	0.0	368.65153615815984	1012.5781467184036	0.0	430.98872373807654	1288.5496762164678	0.0	395.23345822996305	1560.297224403996	0.0	530.3874323186222	1607.525195080525	0.0	501.82685718784535	1620.3822758848764	0.0	369.3534540703366	1602.9746950713097	0.0	409.53865878755335	1007.7875243036393	0.0	443.96062585312154	1273.9701853153088	0.0	417.61504459044187	1498.2748344978768	0.0	538.7331995281073	1552.6287016735505	0.0	523.458525261748	1530.6213407652253	0.0	390.97871991994043	1532.5805918096244	0.0	442.41104031494046	590.6628773280602	0.0	538.227927215101	453.6306826464264	0.0	548.1778238046098	582.2928781958859	0.0	399.69720599305145	653.0900777126094	0.0	391.9494666126512	864.2246209064277	0.0	555.2036699612232	865.7679609069119	0.0	452.9375297054621	654.4460774591715	0.0	441.29967574134173	840.6139975846471	0.0	557.558049790269	864.4579990385055	0.0
122	4.066666666666666	382.8871560225539	987.9433811105613	0.0	368.26958609296275	1013.8869051722974	0.0	430.9959105910363	1289.0944949182247	0.0	395.24823065175843	1560.403028017429	0.0	531.2398457917949	1608.9439576700204	0.0	502.99749586851254	1620.8892164116994	0.0	369.6945734944007	1603.4131729628066	0.0	410.8240129518115	1009.8631281295336	0.0	443.07588961623156	1274.4550281983545	0.0	417.1867699682595	1496.6277057561238	0.0	536.6446713063709	1555.3259711652381	0.0	521.8614264681262	1532.0028120326856	0.0	390.49653649125815	1531.738768708152	0.0	442.61394835161167	593.0687913648846	0.0	537.6339533621789	454.68541162149245	0.0	547.9093938912647	581.8956457560568	0.0	398.866362707294	654.0000069453724	0.0	392.3628240924028	864.7918913978331	0.0	556.7839625431466	865.7120471484544	0.0	456.3083784369061	655.7085286662682	0.0	445.7099331319454	840.3522485837257	0.0	561.320946558356	865.0990391321136	0.0
123	4.1	382.62331035190095	987.1996526145465	0.0	368.6015849496285	1012.5734492944093	0.0	430.74277814122127	1289.4395172761754	0.0	394.5553755185909	1563.1689152798715	0.0	529.0747574676493	1610.7923920851786	0.0	500.4033835544785	1623.4063012286435	0.0	369.99658666558224	1604.3795676212703	0.0	412.43363891003577	1008.1235304423279	0.0	443.37159204375035	1273.3715255380152	0.0	418.3886708037267	1496.1390445560671	0.0	536.2272821774151	1552.5272286908344	0.0	522.4587391259117	1529.386820391563	0.0	391.9215570554071	1530.421917306604	0.0	444.18770102257514	593.9610057340765	0.0	536.8570597707351	453.7287525673378	0.0	549.226563557865	579.0414440983377	0.0	399.98354266192905	653.5085370497246	0.0	392.84385413747304	865.3592714473189	0.0	558.3745656864053	865.3331901448134	0.0	456.9838032899381	654.7170373202758	0.0	444.49152981362397	839.9213459830783	0.0	561.0685349737419	865.9825905885962	0.0
124	4.133333333333333	381.66397451845125	986.753016289407	0.0	368.76845667070097	1010.4748234542059	0.0	430.13735489848415	1289.4364301211658	0.0	394.56126105651356	1565.8301434161986	0.0	527.1208631450116	1612.0165547936226	0.0	498.58247121182575	1624.8582478647909	0.0	370.22270363193104	1605.235144787745	0.0	413.271567961781	1005.5085131636638	0.0	444.43425280793934	1272.5167709255256	0.0	420.5624680348207	1496.866697757882	0.0	537.4371284859903	1549.3960430329323	0.0	524.203494431237	1527.1851429590042	0.0	394.5127505310027	1529.9239302928092	0.0	446.2521743932919	593.235617885141	0.0	535.8608707914141	451.3366961738451	0.0	551.293054516138	575.3440865039357	0.0	402.4717743390579	651.6678483694109	0.0	393.3945239268696	865.2830857400202	0.0	559.377812941571	865.2919204560031	0.0	456.0150805271812	653.1978292714931	0.0	443.13806349250683	839.5866295787597	0.0	560.7980961383562	866.0823116592524	0.0
125	4.166666666666667	381.5472319368848	986.9043935382803	0.0	368.53758224518674	1010.3577696865498	0.0	430.18859170584943	1289.042101684638	0.0	395.4611937286548	1566.081289239639	0.0	527.0264474276607	1612.1144020604113	0.0	499.7384333296952	1623.581276286899	0.0	369.83744063297195	1605.3499627740466	0.0	413.6937929997928	1005.479667287363	0.0	444.7928349550489	1273.0809219281066	0.0	422.2224935084997	1496.2607148088184	0.0	538.0107332611931	1550.2807377626193	0.0	524.4918338912437	1527.8462127359267	0.0	396.68774015839176	1529.489783251263	0.0	447.1074393517025	592.4401301538234	0.0	534.148193413533	448.7413517594539	0.0	552.5998215642687	572.389880578284	0.0	403.91215479959334	650.3582654862159	0.0	394.1754096491082	864.7401471865271	0.0	559.4900258087015	865.9388682846248	0.0	456.44822093919066	653.7172901065472	0.0	447.26454252205394	839.7532642551777	0.0	563.9188597279799	865.6103286361006	0.0
126	4.2	382.6291862523802	987.2381942795871	0.0	369.1892355721468	1011.800960304483	0.0	430.9101436921336	1288.4306550487313	0.0	396.4906904310012	1564.1995018128837	0.0	526.1652978479125	1610.9647586047158	0.0	499.91599261361307	1621.939424477263	0.0	369.03298881661624	1604.4213813306062	0.0	414.07882917640427	1006.6236725007218	0.0	444.47632887968	1273.4180835241298	0.0	422.4363803808802	1493.9049198580512	0.0	537.2849645293841	1550.4639928666609	0.0	523.4854037890395	1527.4046854969772	0.0	397.2052503691217	1528.2156280179765	0.0	446.9521782040153	592.0437975616861	0.0	532.1704767047079	446.5505113478818	0.0	553.4920306585705	569.9993801258597	0.0	403.67573773977944	650.3310757174183	0.0	395.3131973770952	864.6428869758929	0.0	559.2016520236012	865.9297485423908	0.0	457.70686055724946	655.2202737918869	0.0	451.41669218811717	840.1514892458629	0.0	566.0969038923093	866.0187752292369	0.0
127	4.233333333333333	383.7523877367342	987.3372858717585	0.0	371.32429801242154	1012.2677459693687	0.0	431.22676541536	1287.9997470555666	0.0	397.4618455487805	1561.9195853091762	0.0	524.1975277403918	1609.4506953407063	0.0	497.3213319413615	1622.144837499533	0.0	368.9882697009521	1602.633624505262	0.0	414.1074521469438	1006.1604904733312	0.0	444.9611724444711	1272.541583097821	0.0	421.7651033883702	1493.1640718006292	0.0	537.3121521990093	1547.2501628466423	0.0	523.5020725055024	1524.9426247866113	0.0	396.340493469243	1527.7332997023243	0.0	447.22890256252936	591.6918298195601	0.0	530.6586613899726	444.4896350237642	0.0	554.8786297538016	566.9462503813838	0.0	403.53946856182597	650.4936575242723	0.0	396.65516364310923	865.0974797507254	0.0	560.0410562272175	864.5138393417947	0.0	456.96001617213204	655.3393033739195	0.0	449.27387874164197	840.1559841238318	0.0	563.8743897289336	867.269979237788	0.0
128	4.266666666666667	384.53196831644397	987.6237769154228	0.0	373.5156658244048	1011.5916257482925	0.0	431.3323807647496	1288.2963636817715	0.0	398.20830135188703	1561.629707041852	0.0	525.4920602785519	1609.2841756559203	0.0	496.8753004165434	1623.2633716433934	0.0	369.8269467402017	1601.7883473818317	0.0	414.1510489201711	1005.3775957393506	0.0	446.3101045491233	1272.1621964411006	0.0	421.6491754363259	1495.3563117631863	0.0	539.455292682499	1546.2616970306985	0.0	524.9737857656603	1524.8009359966402	0.0	395.65428535335803	1529.2392617049522	0.0	448.62385158608936	591.6434310565428	0.0	529.0855471831405	441.98267408886113	0.0	556.9605054143958	562.6307912955565	0.0	405.23975228404663	650.4526653051413	0.0	398.48002480272015	866.2825027780264	0.0	563.0117368216316	862.9328589586672	0.0	455.6978353577472	654.5620072016877	0.0	445.7138108063826	840.2142415775196	0.0	562.0314635541148	867.3327391218443	0.0
